<?xml version="1.0" encoding="iso-8859-1"?>
<!-- Generator: Adobe Illustrator 19.0.0, SVG Export Plug-In . SVG Version: 6.00 Build 0)  -->
<svg version="1.1" id="Capa_1" xmlns="http://www.w3.org/2000/svg" xmlns:xlink="http://www.w3.org/1999/xlink" x="0px" y="0px"
	 viewBox="0 0 512 512" style="enable-background:new 0 0 512 512;" xml:space="preserve">
<rect x="183.858" y="231.949" style="fill:#C9C6CA;" width="32.06" height="64.13"/>
<rect x="296.078" y="231.949" style="fill:#DBD9DC;" width="32.06" height="64.13"/>
<g>
	<path style="fill:#C9C6CA;" d="M352.204,119.727c7.182,0,13.719-4.861,15.543-12.142c2.145-8.595-3.076-17.3-11.668-19.445
		L163.692,40.043c-8.56-2.141-17.289,3.076-19.441,11.664c-2.145,8.595,3.077,17.3,11.668,19.445l192.387,48.097
		C349.609,119.578,350.917,119.727,352.204,119.727z"/>
	<path style="fill:#C9C6CA;" d="M352.204,183.856c7.182,0,13.719-4.861,15.543-12.142c2.145-8.595-3.076-17.3-11.668-19.445
		l-192.387-48.097c-8.56-2.141-17.289,3.076-19.441,11.664c-2.145,8.595,3.077,17.3,11.668,19.445l192.387,48.097
		C349.609,183.707,350.917,183.856,352.204,183.856z"/>
	<path style="fill:#C9C6CA;" d="M352.204,247.985c7.182,0,13.719-4.861,15.543-12.142c2.145-8.595-3.076-17.3-11.668-19.445
		l-192.387-48.097c-8.56-2.141-17.289,3.077-19.441,11.664c-2.145,8.595,3.077,17.3,11.668,19.445l192.387,48.097
		C349.609,247.836,350.917,247.985,352.204,247.985z"/>
</g>
<path style="fill:#6F6571;" d="M223.934,456.404l5.783,34.7c1.288,7.731,7.977,13.397,15.814,13.397h20.934
	c7.837,0,14.526-5.666,15.814-13.397l5.783-34.7H223.934z"/>
<path style="fill:#9C969E;" d="M199.886,368.227v80.161c0,13.282,10.767,24.048,24.048,24.048h64.129
	c13.282,0,24.048-10.767,24.048-24.048v-80.161H199.886z"/>
<path style="fill:#867E88;" d="M312.112,392.275v-24.048H199.886v80.161c0,13.282,10.767,24.048,24.048,24.048h16.032v-48.097
	c0-17.709,14.356-32.065,32.064-32.065L312.112,392.275L312.112,392.275z"/>
<path style="fill:#EDEBED;" d="M337.075,358.241l-24.965,9.986H199.884l-24.962-9.985c-9.13-3.652-15.117-12.495-15.117-22.328
	v-31.816c0-8.854,7.178-16.032,16.032-16.032H336.16c8.854,0,16.032,7.178,16.032,16.032v31.815
	C352.193,345.746,346.206,354.589,337.075,358.241z"/>
<path style="fill:#DBD9DC;" d="M231.951,335.913v-31.815c0-8.855,1.795-16.032,4.008-16.032h-60.121
	c-8.854,0-16.032,7.178-16.032,16.032v31.815c0,9.833,5.987,18.676,15.117,22.328l24.962,9.985h42.086l-6.241-9.985
	C233.447,354.589,231.951,345.747,231.951,335.913z"/>
<path style="fill:#EDEBED;" d="M236.077,7.988l-79.234,19.808c-8.234,2.059-14.232,9.919-12.877,18.297
	c1.301,8.039,8.199,13.521,15.827,13.521c1.288,0,2.595-0.149,3.898-0.478l80.162-20.041c7.137-1.784,12.144-8.197,12.144-15.554
	l0,0C255.999,13.111,246.197,5.458,236.077,7.988z"/>
<g>
	<path style="fill:#DBD9DC;" d="M216.939,28.447c-1.584-6.347,0.553-12.694,4.96-16.914l-65.98,16.495
		c-8.592,2.145-13.813,10.85-11.668,19.445c1.824,7.28,8.361,12.142,15.543,12.142c1.288,0,2.595-0.149,3.898-0.478l69.721-17.43
		C225.767,41.458,218.89,36.233,216.939,28.447z"/>
	<path style="fill:#DBD9DC;" d="M348.306,247.507c1.303,0.329,2.611,0.478,3.898,0.478c7.182,0,13.719-4.861,15.543-12.142
		c2.145-8.595-3.076-17.3-11.668-19.445l-56.405-14.101l-61.699,17.628L348.306,247.507z"/>
	<path style="fill:#DBD9DC;" d="M348.306,183.378c1.303,0.329,2.611,0.478,3.898,0.478c7.182,0,13.719-4.861,15.543-12.142
		c2.145-8.595-3.076-17.3-11.668-19.445l-56.405-14.101l-61.699,17.628L348.306,183.378z"/>
	<path style="fill:#DBD9DC;" d="M348.306,119.249c1.303,0.329,2.611,0.478,3.898,0.478c7.182,0,13.719-4.861,15.543-12.142
		c2.145-8.595-3.076-17.3-11.668-19.445l-56.405-14.101l-61.699,17.628L348.306,119.249z"/>
</g>
<path style="fill:#EDEBED;" d="M159.794,251.999c-7.182,0-13.719-4.861-15.543-12.142c-2.145-8.595,3.077-17.3,11.668-19.445
	l192.387-48.097c8.56-2.141,17.289,3.077,19.441,11.664c2.145,8.595-3.076,17.3-11.668,19.445l-192.387,48.097
	C162.389,251.85,161.081,251.999,159.794,251.999z"/>
<path style="fill:#DBD9DC;" d="M216.939,220.831c-1.584-6.347,0.553-12.694,4.96-16.914l-65.98,16.495
	c-8.592,2.145-13.813,10.85-11.668,19.445c1.824,7.28,8.361,12.142,15.543,12.142c1.288,0,2.595-0.149,3.898-0.478l69.721-17.43
	C225.767,233.843,218.89,228.618,216.939,220.831z"/>
<path style="fill:#EDEBED;" d="M159.794,187.873c-7.182,0-13.719-4.861-15.543-12.142c-2.145-8.595,3.077-17.3,11.668-19.445
	l192.387-48.097c8.56-2.141,17.289,3.076,19.441,11.664c2.145,8.595-3.076,17.3-11.668,19.445l-192.387,48.097
	C162.389,187.724,161.081,187.873,159.794,187.873z"/>
<path style="fill:#DBD9DC;" d="M216.939,156.705c-1.584-6.347,0.553-12.694,4.96-16.914l-65.98,16.495
	c-8.592,2.145-13.813,10.85-11.668,19.445c1.824,7.28,8.361,12.142,15.543,12.142c1.288,0,2.595-0.149,3.898-0.478l69.721-17.43
	C225.767,169.716,218.89,164.492,216.939,156.705z"/>
<path style="fill:#EDEBED;" d="M159.794,123.741c-7.182,0-13.719-4.861-15.543-12.142c-2.145-8.595,3.077-17.3,11.668-19.445
	l192.387-48.097c8.56-2.141,17.289,3.077,19.441,11.664c2.145,8.595-3.076,17.3-11.668,19.445l-192.387,48.097
	C162.389,123.592,161.081,123.741,159.794,123.741z"/>
<path style="fill:#DBD9DC;" d="M216.939,92.573c-1.584-6.347,0.553-12.694,4.96-16.914l-65.98,16.495
	c-8.592,2.145-13.813,10.85-11.668,19.445c1.824,7.28,8.361,12.142,15.543,12.142c1.288,0,2.595-0.149,3.898-0.478l69.721-17.43
	C225.767,105.585,218.89,100.36,216.939,92.573z"/>
<path d="M375.729,103.703c0.008-9.935-6.179-18.648-15.318-22.043c11.072-4.117,17.54-16.025,14.611-27.762
	c-3.155-12.585-15.958-20.263-28.536-17.116l-82.46,20.615l-31.224-7.806l12.87-3.217c10.496-2.624,17.826-12.012,17.826-22.831
	c0-7.297-3.299-14.058-9.05-18.549s-13.113-6.051-20.19-4.281l-79.234,19.808c-11.182,2.795-18.902,12.792-18.74,23.57
	c-0.004,0.106-0.016,0.21-0.016,0.316v11.182c-0.008,10.824,7.325,20.216,17.831,22.839l12.899,3.225l-12.896,3.224
	c-10.853,2.71-18.054,12.603-17.818,23.354c-0.004,0.101-0.015,0.2-0.015,0.302v11.183c-0.008,10.824,7.325,20.217,17.831,22.839
	l12.907,3.227l-12.905,3.226c-10.859,2.711-18.063,12.614-17.817,23.373c-0.004,0.103-0.016,0.205-0.016,0.309v11.183
	c-0.008,10.824,7.325,20.217,17.831,22.839l12.846,3.211l-12.844,3.211c-12.586,3.143-20.271,15.944-17.126,28.545
	c2.628,10.492,12.012,17.819,22.818,17.819c1.947,0,3.875-0.237,5.717-0.702l10.843-2.711v24.479h-0.516
	c-12.976,0-23.532,10.557-23.532,23.532v31.816c0,12.975,7.784,24.473,19.831,29.292l20.25,8.1v75.083
	c0,15.344,11.013,28.158,25.548,30.969l3.705,14.819C224.264,504.67,233.651,512,244.47,512h23.062
	c10.818,0,20.206-7.33,22.83-17.825l3.705-14.819c14.535-2.811,25.548-15.625,25.548-30.969v-75.084l20.249-8.1l0,0
	c12.047-4.819,19.832-16.316,19.832-29.292v-31.815c0-12.976-10.557-23.532-23.532-23.532h-0.516v-28.465l10.846,2.712
	c1.913,0.478,3.845,0.713,5.76,0.713c5.177,0,10.231-1.717,14.429-4.994c5.751-4.49,9.05-11.25,9.05-18.542
	c0.008-9.947-6.194-18.67-15.351-22.056c9.271-3.432,15.321-12.322,15.346-22.011c0-0.035,0.005-0.07,0.005-0.105v-19.985
	c0.008-9.934-6.176-18.645-15.312-22.041c9.249-3.443,15.282-12.321,15.307-21.997c0-0.035,0.005-0.07,0.005-0.105v-19.985H375.729z
	 M264.037,121.525l-31.235-7.809l31.226-7.807l31.235,7.809L264.037,121.525z M326.185,105.988l-31.235-7.809l35.183-8.796
	l24.129,6.032c3.159,0.789,5.521,3.264,6.237,6.324c-4.333-1.644-9.188-2.034-14.012-0.827L326.185,105.988z M158.663,35.072
	l79.234-19.808c2.568-0.641,5.235-0.076,7.321,1.553c2.085,1.628,3.282,4.08,3.282,6.726c0,3.923-2.658,7.327-6.463,8.278
	l-80.176,20.044c-0.658,0.166-1.354,0.25-2.065,0.25c-4.204,0-7.747-3.036-8.423-7.219
	C150.685,40.655,153.956,36.249,158.663,35.072z M166.697,66.116l35.183-8.796l31.224,7.806l-35.184,8.796L166.697,66.116z
	 M157.738,99.43l192.388-48.097c0.691-0.173,1.384-0.255,2.066-0.255c3.821,0,7.309,2.592,8.279,6.459
	c1.14,4.57-1.645,9.214-6.21,10.354l-192.403,48.101c-0.656,0.166-1.35,0.25-2.063,0.25c-3.915,0-7.314-2.658-8.267-6.457
	C150.387,105.214,153.172,100.57,157.738,99.43z M166.696,130.243l35.183-8.796l31.235,7.809l-35.184,8.796L166.696,130.243z
	 M166.645,194.388l35.183-8.796l31.224,7.806l-35.183,8.796L166.645,194.388z M330.143,153.514l24.12,6.031
	c3.158,0.788,5.52,3.263,6.236,6.323c-4.333-1.644-9.188-2.034-14.012-0.828l-20.304,5.076l-31.223-7.806L330.143,153.514z
	 M264.037,170.04l31.223,7.806l-31.287,7.822l-31.224-7.806L264.037,170.04z M191.354,252.337l17.064-4.266v32.495h-17.064V252.337z
	 M263.976,234.182l24.604,6.151v40.233h-65.162v-36.245L263.976,234.182z M267.53,497.001h-23.062c-3.922,0-7.326-2.658-8.278-6.463
	l-2.65-10.602h44.918l-2.65,10.602C274.856,494.343,271.452,497.001,267.53,497.001z M288.063,464.937h-64.129
	c-9.125,0-16.548-7.423-16.548-16.548v-1.033l57.17-4.083c4.132-0.295,7.242-3.884,6.947-8.015
	c-0.295-4.132-3.891-7.245-8.015-6.947l-56.102,4.007v-17.026l57.158-4.083c4.132-0.295,7.242-3.884,6.947-8.015
	c-0.295-4.132-3.89-7.244-8.015-6.947l-56.09,4.007v-24.526h97.226v17.581l-9.061,0.647c-4.132,0.295-7.242,3.884-6.947,8.015
	c0.282,3.95,3.574,6.966,7.473,6.966c0.179,0,0.36-0.006,0.542-0.02l7.993-0.571v17.026l-9.068,0.648
	c-4.132,0.295-7.242,3.884-6.947,8.015c0.282,3.95,3.574,6.966,7.473,6.966c0.179,0,0.36-0.006,0.542-0.02l8-0.571v7.978
	C304.612,457.513,297.188,464.937,288.063,464.937z M344.692,304.098v31.815c0,6.806-4.083,12.837-10.402,15.364l0,0l-23.623,9.449
	H201.329l-23.621-9.449c-6.319-2.528-10.402-8.559-10.402-15.365v-31.816c0-4.705,3.828-8.532,8.532-8.532H336.16
	C340.865,295.565,344.692,299.393,344.692,304.098z M320.644,280.565H303.58v-36.483l17.064,4.266V280.565z M357.448,238.706
	c-2.085,1.628-4.753,2.194-7.319,1.552l-55.23-13.807l35.183-8.796l24.181,6.045c3.811,0.951,6.47,4.354,6.467,8.281
	C360.729,234.628,359.533,237.078,357.448,238.706z M354.26,196.149l-192.401,48.1c-0.658,0.166-1.354,0.25-2.065,0.25
	c-3.915,0-7.314-2.658-8.267-6.457c-1.14-4.569,1.645-9.214,6.21-10.354l192.387-48.097c0.691-0.173,1.384-0.255,2.066-0.255
	c3.821,0,7.31,2.592,8.279,6.459C361.611,190.365,358.826,195.009,354.26,196.149z M354.26,132.023l-192.403,48.101
	c-0.656,0.166-1.35,0.25-2.063,0.25c-3.915,0-7.314-2.658-8.267-6.457c-1.14-4.57,1.645-9.214,6.21-10.354l192.388-48.097
	c0.691-0.173,1.384-0.255,2.066-0.255c3.821,0,7.309,2.592,8.279,6.459C361.611,126.238,358.826,130.882,354.26,132.023z"/>
<g>
</g>
<g>
</g>
<g>
</g>
<g>
</g>
<g>
</g>
<g>
</g>
<g>
</g>
<g>
</g>
<g>
</g>
<g>
</g>
<g>
</g>
<g>
</g>
<g>
</g>
<g>
</g>
<g>
</g>
</svg>
