<?xml version="1.0" encoding="iso-8859-1"?>
<!-- Generator: Adobe Illustrator 19.0.0, SVG Export Plug-In . SVG Version: 6.00 Build 0)  -->
<svg version="1.1" id="Capa_1" xmlns="http://www.w3.org/2000/svg" xmlns:xlink="http://www.w3.org/1999/xlink" x="0px" y="0px"
	 viewBox="0 0 511.999 511.999" style="enable-background:new 0 0 511.999 511.999;" xml:space="preserve">
<path style="fill:#96D255;" d="M308.459,105.031l-46.057-46.058c-3.027-3.027-7.132-4.727-11.413-4.727H15.57
	c-4.457,0-8.07,3.613-8.07,8.07v96.842c0,4.457,3.613,8.07,8.07,8.07h235.419c4.281,0,8.386-1.701,11.413-4.728l46.057-46.057
	C311.611,113.292,311.611,108.183,308.459,105.031z"/>
<path style="fill:#BEE86E;" d="M405.302,250.294l-46.057-46.058c-3.027-3.027-7.132-4.727-11.413-4.727H15.57
	c-4.457,0-8.07,3.613-8.07,8.07v96.842c0,4.457,3.613,8.07,8.07,8.07h332.261c4.281,0,8.386-1.701,11.413-4.728l46.057-46.057
	C408.453,258.555,408.453,253.445,405.302,250.294z"/>
<path style="fill:#E1F573;" d="M502.143,395.557l-46.057-46.058c-3.027-3.027-7.132-4.727-11.413-4.727H15.57
	c-4.457,0-8.07,3.613-8.07,8.07v96.842c0,4.457,3.613,8.07,8.07,8.07h429.103c4.281,0,8.386-1.701,11.413-4.728l46.057-46.057
	C505.295,403.818,505.295,398.708,502.143,395.557z"/>
<path style="fill:#96D255;" d="M39.781,159.158V62.316c0-4.457,3.613-8.07,8.07-8.07H15.57c-4.457,0-8.07,3.613-8.07,8.07v96.842
	c0,4.457,3.613,8.07,8.07,8.07h32.28C43.394,167.228,39.781,163.614,39.781,159.158z"/>
<path style="fill:#AFD755;" d="M39.781,304.421v-96.842c0-4.457,3.613-8.07,8.07-8.07H15.57c-4.457,0-8.07,3.613-8.07,8.07v96.842
	c0,4.457,3.613,8.07,8.07,8.07h32.28C43.394,312.491,39.781,308.877,39.781,304.421z"/>
<path style="fill:#87B950;" d="M39.781,159.158V62.316c0-4.457,3.613-8.07,8.07-8.07H15.57c-4.457,0-8.07,3.613-8.07,8.07v96.842
	c0,4.457,3.613,8.07,8.07,8.07h32.28C43.394,167.228,39.781,163.614,39.781,159.158z"/>
<path style="fill:#C7E86E;" d="M39.781,449.683v-96.842c0-4.457,3.613-8.07,8.07-8.07H15.57c-4.457,0-8.07,3.613-8.07,8.07v96.842
	c0,4.457,3.613,8.07,8.07,8.07h32.28C43.394,457.753,39.781,454.14,39.781,449.683z"/>
<path d="M15.57,174.729h235.419c6.314,0,12.251-2.459,16.716-6.924l46.057-46.057c6.071-6.071,6.071-15.949,0-22.02L267.706,53.67
	c-4.465-4.465-10.401-6.924-16.716-6.924H55.919c-4.142,0-7.5,3.358-7.5,7.5s3.358,7.5,7.5,7.5h195.07
	c2.308,0,4.478,0.898,6.11,2.53l46.057,46.058c0.042,0.042,0.167,0.167,0.167,0.403c0,0.236-0.125,0.362-0.167,0.403l-46.057,46.057
	c-1.632,1.632-3.802,2.531-6.11,2.531H15.57c-0.314,0-0.57-0.256-0.57-0.57V62.316c0-0.314,0.255-0.57,0.57-0.57h8.07
	c4.142,0,7.5-3.358,7.5-7.5s-3.358-7.5-7.5-7.5h-8.07C6.984,46.746,0,53.731,0,62.316v96.842C0,167.743,6.984,174.729,15.57,174.729
	z"/>
<path d="M15.57,319.992h332.262c6.314,0,12.251-2.459,16.716-6.924l46.058-46.058c6.07-6.07,6.07-15.948,0-22.019l-46.058-46.058
	c-4.465-4.465-10.401-6.924-16.716-6.924H55.921c-4.142,0-7.5,3.358-7.5,7.5c0,4.142,3.358,7.5,7.5,7.5h291.91
	c2.308,0,4.478,0.898,6.109,2.53l46.057,46.057c0.223,0.223,0.223,0.585,0,0.807l-46.058,46.058c-1.632,1.632-3.801,2.53-6.109,2.53
	H15.57c-0.314,0-0.57-0.256-0.57-0.57v-96.842c0-0.314,0.256-0.57,0.57-0.57h8.069c4.142,0,7.5-3.358,7.5-7.5
	c0-4.142-3.358-7.5-7.5-7.5H15.57c-8.585,0-15.57,6.984-15.57,15.57v96.842C0,313.006,6.984,319.992,15.57,319.992z"/>
<path d="M507.446,390.253l-46.058-46.057c-4.465-4.465-10.401-6.924-16.716-6.924H55.92c-4.142,0-7.5,3.358-7.5,7.5
	c0,4.142,3.358,7.5,7.5,7.5h388.753c2.308,0,4.478,0.899,6.109,2.531l46.058,46.057c0.042,0.042,0.167,0.167,0.167,0.403
	s-0.125,0.362-0.167,0.403l-46.058,46.058c-1.632,1.632-3.801,2.53-6.109,2.53H15.57c-0.314,0-0.57-0.256-0.57-0.57v-96.842
	c0-0.314,0.256-0.57,0.57-0.57h8.071c4.142,0,7.5-3.358,7.5-7.5c0-4.142-3.358-7.5-7.5-7.5H15.57c-8.585,0-15.57,6.984-15.57,15.57
	v96.842c0,8.585,6.985,15.57,15.57,15.57h429.103c6.314,0,12.251-2.459,16.716-6.924l46.058-46.058
	C513.517,406.202,513.517,396.324,507.446,390.253z"/>
<path d="M191.752,138.301l5.997-11.994h31.08l5.997,11.994c1.314,2.628,3.962,4.148,6.714,4.147c1.127,0,2.271-0.255,3.348-0.793
	c3.705-1.852,5.207-6.357,3.354-10.062l-24.21-48.421c-1.27-2.541-3.867-4.146-6.708-4.146h-8.07c-2.841,0-5.438,1.605-6.708,4.146
	l-24.21,48.421c-1.853,3.705-0.351,8.21,3.354,10.062C185.394,143.509,189.9,142.007,191.752,138.301z M213.289,95.227l8.04,16.08
	h-16.08L213.289,95.227z"/>
<path d="M318.201,224.289h-28.245c-4.142,0-7.5,3.358-7.5,7.5V256v24.21c0,4.142,3.358,7.5,7.5,7.5h36.316
	c10.81,0,19.605-8.795,19.605-19.605c0-7.127-3.835-13.359-9.538-16.791c0.94-2.291,1.468-4.793,1.468-7.419
	C337.807,233.084,329.012,224.289,318.201,224.289z M297.456,239.289h20.745c2.539,0,4.605,2.066,4.605,4.605
	c0,2.539-2.066,4.605-4.605,4.605h-20.745V239.289z M326.271,272.71h-28.815v-9.21h28.815c2.539,0,4.605,2.066,4.605,4.605
	S328.811,272.71,326.271,272.71z"/>
<path d="M411.008,384.552h8.07c4.72,0,9.107,1.985,12.355,5.59c2.772,3.077,7.515,3.323,10.592,0.552
	c3.078-2.772,3.325-7.515,0.552-10.592c-6.041-6.705-14.605-10.55-23.5-10.55h-8.07c-17.485,0-31.71,14.225-31.71,31.71
	s14.225,31.71,31.71,31.71h8.07c8.894,0,17.459-3.845,23.5-10.55c2.772-3.077,2.525-7.82-0.552-10.592
	c-3.077-2.771-7.819-2.525-10.592,0.552c-3.248,3.604-7.635,5.59-12.355,5.59h-8.07c-9.214,0-16.71-7.496-16.71-16.71
	S401.793,384.552,411.008,384.552z"/>
<g>
</g>
<g>
</g>
<g>
</g>
<g>
</g>
<g>
</g>
<g>
</g>
<g>
</g>
<g>
</g>
<g>
</g>
<g>
</g>
<g>
</g>
<g>
</g>
<g>
</g>
<g>
</g>
<g>
</g>
</svg>
