<?xml version="1.0" encoding="iso-8859-1"?>
<!-- Generator: Adobe Illustrator 19.0.0, SVG Export Plug-In . SVG Version: 6.00 Build 0)  -->
<svg version="1.1" id="Capa_1" xmlns="http://www.w3.org/2000/svg" xmlns:xlink="http://www.w3.org/1999/xlink" x="0px" y="0px"
	 viewBox="0 0 512 512" style="enable-background:new 0 0 512 512;" xml:space="preserve">
<path style="fill:#EDEBED;" d="M376.236,408.308H215.913l-7.292,87.512c-0.389,4.673,3.299,8.682,7.988,8.682H375.54
	c4.69,0,8.378-4.009,7.988-8.682L376.236,408.308z"/>
<path style="fill:#DBD9DC;" d="M278.817,424.34h98.755l-1.336-16.032H215.913l-7.293,87.512c-0.389,4.673,3.299,8.682,7.988,8.682
	h33.4l4.842-58.11C255.89,433.927,266.31,424.34,278.817,424.34z"/>
<path style="fill:#E6646E;" d="M369.513,47.616c-13.869-0.726-25.341,10.304-25.341,24.015V48.943
	c0-13.022-9.751-24.695-22.755-25.375c-13.869-0.726-25.341,10.304-25.341,24.015V32.911c0-13.022-9.751-24.695-22.755-25.375
	C259.452,6.81,247.98,17.84,247.98,31.551v16.032c0-13.71-11.473-24.741-25.341-24.015c-13.004,0.681-22.755,12.353-22.755,25.375
	v164.378l-34.898-56.906c-6.808-11.101-21.222-15.953-32.663-9.734c-12.202,6.632-16.216,22.033-9.048,33.72l64.783,105.638
	c7.733,12.61,11.827,27.114,11.827,41.907v64.331c0,8.854,7.178,16.032,16.032,16.032H376.24c8.854,0,16.032-7.178,16.032-16.032
	V72.991C392.268,59.969,382.517,48.297,369.513,47.616z"/>
<path style="fill:#FFDC64;" d="M336.155,352.195h-80.161c-8.854,0-16.032-7.178-16.032-16.032v-80.161
	c0-8.854,7.178-16.032,16.032-16.032h80.161c8.854,0,16.032,7.178,16.032,16.032v80.161
	C352.188,345.017,345.01,352.195,336.155,352.195z"/>
<g>
	<path style="fill:#DC4655;" d="M211.905,223.937L211.905,223.937c-6.641,0-12.024-5.383-12.024-12.024V51.59
		c0-6.641,5.383-12.024,12.024-12.024l0,0c6.641,0,12.024,5.383,12.024,12.024v160.323
		C223.93,218.554,218.546,223.937,211.905,223.937z"/>
	<path style="fill:#DC4655;" d="M260.002,191.873L260.002,191.873c-6.641,0-12.024-5.383-12.024-12.024V35.558
		c0-6.641,5.383-12.024,12.024-12.024l0,0c6.641,0,12.024,5.383,12.024,12.024v144.29
		C272.026,186.489,266.643,191.873,260.002,191.873z"/>
	<path style="fill:#DC4655;" d="M308.099,183.856L308.099,183.856c-6.641,0-12.024-5.383-12.024-12.024V51.59
		c0-6.641,5.383-12.024,12.024-12.024l0,0c6.641,0,12.024,5.383,12.024,12.024v120.242
		C320.123,178.473,314.74,183.856,308.099,183.856z"/>
	<path style="fill:#DC4655;" d="M356.196,199.889L356.196,199.889c-6.641,0-12.024-5.383-12.024-12.024V75.639
		c0-6.641,5.383-12.024,12.024-12.024l0,0c6.641,0,12.024,5.383,12.024,12.024v112.226
		C368.22,194.505,362.836,199.889,356.196,199.889z"/>
	<path style="fill:#DC4655;" d="M223.93,328.147v-8.219c0-14.793-4.093-29.297-11.827-41.907L147.32,172.384
		c-5.454-8.893-4.402-19.912,1.773-27.605c-5.532-1.4-11.464-0.983-16.773,1.902c-12.202,6.632-16.216,22.032-9.048,33.72
		l64.783,105.637c7.733,12.61,11.827,27.114,11.827,41.907v64.332c0,8.854,7.178,16.032,16.032,16.032h160.323
		c8.854,0,16.032-7.178,16.032-16.032h-104.21C252.641,392.276,223.93,363.564,223.93,328.147z"/>
</g>
<polygon style="fill:#FF8087;" points="380.244,456.405 376.236,408.308 215.913,408.308 211.905,456.405 "/>
<path style="fill:#E6646E;" d="M211.905,456.405h42.112l0.834-10.013c1.039-12.464,11.458-22.051,23.965-22.051h98.755
	l-1.336-16.032H215.913L211.905,456.405z"/>
<path d="M369.905,40.126c-6.634-0.343-13.009,1.326-18.468,4.774c-1.833-15.678-14.188-28.015-29.629-28.823
	c-7.269-0.377-14.245,1.671-20.031,5.829c-4.14-12.235-14.998-21.177-28.066-21.861c-8.745-0.456-17.061,2.603-23.399,8.618
	c-3.818,3.624-6.642,8.147-8.26,13.083c-5.741-4.051-12.627-6.044-19.807-5.669c-16.746,0.877-29.863,15.313-29.863,32.865v137.802
	l-21.005-34.251c-9.176-14.963-27.904-20.411-42.638-12.403c-7.7,4.185-13.184,11.138-15.442,19.579
	c-2.227,8.323-0.921,17.309,3.582,24.651l64.783,105.638c7.013,11.436,10.72,24.571,10.72,37.986v64.332
	c0,10.156,6.467,18.828,15.499,22.119l-6.733,80.802c-0.359,4.312,1.115,8.61,4.044,11.794c2.93,3.184,7.092,5.01,11.418,5.01
	h158.93c4.327,0,8.488-1.826,11.418-5.01s4.404-7.482,4.045-11.795l-6.734-80.802c9.032-3.291,15.499-11.963,15.499-22.119V72.991
	C399.768,55.439,386.65,41.003,369.905,40.126z M375.92,496.835c-0.154,0.166-0.318,0.166-0.38,0.166H216.609
	c-0.062,0-0.227,0-0.38-0.167s-0.14-0.331-0.134-0.392l2.711-32.538h101.315c4.142,0,7.5-3.358,7.5-7.5s-3.358-7.5-7.5-7.5H220.057
	l2.758-33.097h146.52l2.758,33.097h-19.902c-4.142,0-7.5,3.358-7.5,7.5s3.358,7.5,7.5,7.5h21.152l2.712,32.538
	C376.06,496.504,376.074,496.668,375.92,496.835z M384.768,392.276c0,4.705-3.828,8.532-8.532,8.532H215.913
	c-4.705,0-8.532-3.828-8.532-8.532v-64.332c0-16.185-4.472-32.031-12.933-45.828l-64.783-105.638
	c-2.397-3.908-3.064-8.501-1.878-12.933c1.185-4.427,4.066-8.077,8.115-10.277c2.259-1.228,4.747-1.809,7.257-1.809
	c5.925,0,11.976,3.241,15.431,8.875l34.898,56.906c1.755,2.862,5.197,4.208,8.431,3.297c3.231-0.912,5.463-3.861,5.463-7.218V48.943
	c0-9.41,7.02-17.434,15.647-17.886c4.601-0.242,8.966,1.364,12.29,4.519c3.327,3.158,5.16,7.421,5.16,12.006v136.274
	c0,4.142,3.358,7.5,7.5,7.5s7.5-3.358,7.5-7.5V31.55c0-4.584,1.833-8.848,5.16-12.006c3.324-3.155,7.695-4.759,12.29-4.519
	c8.628,0.452,15.647,8.476,15.647,17.886v134.914c0,4.142,3.358,7.5,7.5,7.5s7.5-3.358,7.5-7.5V47.582
	c0-4.584,1.833-8.848,5.16-12.006c3.324-3.155,7.684-4.76,12.29-4.519c8.628,0.452,15.647,8.476,15.647,17.886v134.914
	c0,4.142,3.358,7.5,7.5,7.5s7.5-3.358,7.5-7.5V71.63c0-4.584,1.833-8.849,5.16-12.006c3.324-3.154,7.687-4.755,12.29-4.519
	c8.628,0.452,15.647,8.475,15.647,17.885v319.286H384.768z"/>
<path d="M336.155,232.469h-80.161c-12.976,0-23.532,10.557-23.532,23.532v80.161c0,12.976,10.557,23.532,23.532,23.532h80.161
	c12.976,0,23.532-10.557,23.532-23.532v-80.161C359.687,243.026,349.131,232.469,336.155,232.469z M344.687,336.163
	c0,4.705-3.828,8.532-8.532,8.532h-80.161c-4.705,0-8.532-3.828-8.532-8.532v-80.162c0-4.705,3.828-8.532,8.532-8.532h80.161
	c4.705,0,8.532,3.828,8.532,8.532V336.163z"/>
<path d="M308.767,288.582h-13.76l7.901-17.465c1.707-3.774,0.032-8.217-3.742-9.925c-3.775-1.707-8.217-0.031-9.925,3.742
	l-12.692,28.056c-1.05,2.321-0.85,5.017,0.531,7.157c1.381,2.141,3.755,3.434,6.302,3.434h13.76l-7.901,17.465
	c-1.707,3.774-0.032,8.217,3.742,9.925c1.003,0.454,2.053,0.668,3.087,0.668c2.855,0,5.584-1.64,6.838-4.411l12.692-28.057
	c1.05-2.321,0.85-5.017-0.531-7.157C313.688,289.876,311.314,288.582,308.767,288.582z"/>
<g>
</g>
<g>
</g>
<g>
</g>
<g>
</g>
<g>
</g>
<g>
</g>
<g>
</g>
<g>
</g>
<g>
</g>
<g>
</g>
<g>
</g>
<g>
</g>
<g>
</g>
<g>
</g>
<g>
</g>
</svg>
